<svg height="512" viewBox="0 0 128 128" width="512" xmlns="http://www.w3.org/2000/svg"><path d="m119.09 92.932v-8.744a1.749 1.749 0 0 0 -1.75-1.75h-4.668a1.722 1.722 0 0 0 .592-1.761l-1.448-5.926-1.869-7.65-7.559-30.941a1.752 1.752 0 0 0 -2.115-1.285l-10.5 2.566v-6.264a1.751 1.751 0 0 0 -1.75-1.75h-13.342v-6.327a1.75 1.75 0 0 0 -1.75-1.75h-17.383a1.75 1.75 0 0 0 -1.748 1.75v4.25h-15.635a1.75 1.75 0 0 0 -1.75 1.75v7.964l-12.18-2.031a1.75 1.75 0 0 0 -2.014 1.439l-5.956 35.735-1.555 9.323a1.735 1.735 0 0 0 .1.908h-4.15a1.749 1.749 0 0 0 -1.75 1.75v8.744a1.75 1.75 0 0 0 1.75 1.75h7.824v10.218a1.75 1.75 0 0 0 1.75 1.75h9.979a1.75 1.75 0 0 0 1.75-1.75v-10.218h64.074v10.218a1.75 1.75 0 0 0 1.75 1.75h9.979a1.75 1.75 0 0 0 1.75-1.75v-10.218h7.824a1.75 1.75 0 0 0 1.75-1.75zm-9.642-13.124-9.269 2.264-.618-2.529 9.269-2.265zm-1.448-5.93-9.27 2.265-.121-.5-.917-3.753 9.269-2.265zm-8.6-35.193 6.73 27.543-9.27 2.265-6.73-27.544zm-5.524 32.337 1.685 6.9 1.1 4.517h-6.9v-28.239zm-36.576 11.416v-12.873h13.881v12.873zm-17.383 0v-7.894h13.883v7.894zm46.349-8.138h-11.585v-3.447h11.585zm-11.585 3.5h11.585v4.643h-11.585zm11.585-44.873v34.426h-11.585v-34.426zm-28.966-8.074h13.881v41.212h-13.881zm-3.5 6v40.191h-13.885v-40.191zm-17.385 51.585h-3.695l3.7-22.166zm-11.029-43.662 10.765 1.795-5.382 32.284-10.769-1.795zm3.83 43.4-10.765-1.797.978-5.867 10.765 1.8zm-.753 20.974h-6.479v-8.468h6.479zm77.553 0h-6.479v-8.468h6.479zm9.574-11.965h-103.18v-5.247h103.18z"/><path d="m61.942 32.129h4.6a1.75 1.75 0 1 0 0-3.5h-4.6a1.75 1.75 0 0 0 0 3.5z"/><path d="m66.538 73.055h-4.6a1.75 1.75 0 0 0 0 3.5h4.6a1.75 1.75 0 1 0 0-3.5z"/><path d="m78.479 39.242h3.989a1.75 1.75 0 0 0 0-3.5h-3.989a1.75 1.75 0 0 0 0 3.5z"/><path d="m44.559 38.129h4.6a1.75 1.75 0 0 0 0-3.5h-4.6a1.75 1.75 0 0 0 0 3.5z"/><path d="m44.559 44.384h4.6a1.75 1.75 0 0 0 0-3.5h-4.6a1.75 1.75 0 0 0 0 3.5z"/><path d="m26.365 66.09a1.782 1.782 0 0 0 .289.025 1.75 1.75 0 0 0 1.724-1.463l3.186-19.108a1.75 1.75 0 1 0 -3.452-.575l-3.186 19.108a1.749 1.749 0 0 0 1.439 2.013z"/></svg>