<?xml version="1.0"?>
<svg xmlns="http://www.w3.org/2000/svg" id="Outline" viewBox="0 0 512 512" width="512" height="512"><path d="M488,64H464V56a8,8,0,0,0-8-8H400V40a24,24,0,0,0-48,0v8H336V40a24,24,0,0,0-48,0v8H192V40a24,24,0,0,0-48,0v8H128V40a24,24,0,0,0-48,0v8H24a8,8,0,0,0-8,8V456a8,8,0,0,0,8,8h8v24a8,8,0,0,0,8,8H488a8,8,0,0,0,8-8V72A8,8,0,0,0,488,64ZM32,448V160H448V448ZM368,40a8,8,0,0,1,16,0v8H368Zm-64,0a8,8,0,0,1,16,0v8H304ZM160,40a8,8,0,0,1,16,0v8H160ZM96,40a8,8,0,0,1,16,0v8H96ZM80,64v8a24.028,24.028,0,0,0,24,24,8,8,0,0,0,0-16,8.009,8.009,0,0,1-8-8V64h48v8a24.028,24.028,0,0,0,24,24,8,8,0,0,0,0-16,8.009,8.009,0,0,1-8-8V64H288v8a24.028,24.028,0,0,0,24,24,8,8,0,0,0,0-16,8.009,8.009,0,0,1-8-8V64h48v8a24.028,24.028,0,0,0,24,24,8,8,0,0,0,0-16,8.009,8.009,0,0,1-8-8V64h80v80H32V64ZM480,480H48V464H456a8,8,0,0,0,8-8V80h16Z"/><path d="M292.2,284.234A56.1,56.1,0,0,0,328,232V216a8,8,0,0,0-8-8H296v-8a8,8,0,0,0-8-8H192a8,8,0,0,0-8,8v8H160a8,8,0,0,0-8,8v16a56.1,56.1,0,0,0,35.8,52.234A56.316,56.316,0,0,0,216,314.586V368H192a8,8,0,0,0-7.155,4.422l-16,32A8,8,0,0,0,176,416H304a8,8,0,0,0,7.155-11.578l-16-32A8,8,0,0,0,288,368H264V314.586A56.316,56.316,0,0,0,292.2,284.234ZM312,224v8a40.086,40.086,0,0,1-16,32h0V224Zm-144,8v-8h16v40h0A40.086,40.086,0,0,1,168,232Zm32,32V208h80v56a40,40,0,0,1-80,0Zm91.056,136H188.944l8-16h86.112ZM248,368H232V319.419a55.368,55.368,0,0,0,16,0Z"/></svg>
