<svg id="Capa_1" enable-background="new 0 0 512 512" height="512" viewBox="0 0 512 512" width="512" xmlns="http://www.w3.org/2000/svg"><g><g><path d="m83.072 194.376c4.143 0 7.5-3.358 7.5-7.5v-77.211h15.985c4.143 0 7.5-3.358 7.5-7.5s-3.357-7.5-7.5-7.5h-46.782c-4.143 0-7.5 3.358-7.5 7.5s3.357 7.5 7.5 7.5h15.797v77.211c0 4.143 3.358 7.5 7.5 7.5z"/><path d="m258.824 94.666h-108.576c-4.143 0-7.5 3.358-7.5 7.5s3.357 7.5 7.5 7.5h108.576c4.143 0 7.5-3.358 7.5-7.5s-3.357-7.5-7.5-7.5z"/><path d="m258.824 137.021h-108.576c-4.143 0-7.5 3.358-7.5 7.5s3.357 7.5 7.5 7.5h108.576c4.143 0 7.5-3.358 7.5-7.5s-3.357-7.5-7.5-7.5z"/><path d="m258.824 179.376h-108.576c-4.143 0-7.5 3.358-7.5 7.5s3.357 7.5 7.5 7.5h108.576c4.143 0 7.5-3.358 7.5-7.5s-3.357-7.5-7.5-7.5z"/><path d="m59.775 236.732h199.049c4.143 0 7.5-3.358 7.5-7.5s-3.357-7.5-7.5-7.5h-199.049c-4.143 0-7.5 3.358-7.5 7.5s3.358 7.5 7.5 7.5z"/><path d="m377.272 324.635c-4.143 0-7.5 3.358-7.5 7.5v49.175c0 1.989.79 3.897 2.196 5.303l26.158 26.158c2.93 2.929 7.678 2.929 10.607 0s2.929-7.678 0-10.606l-23.962-23.961v-46.068c.001-4.143-3.356-7.501-7.499-7.501z"/><path d="m274.277 497h-232.306c-14.847 0-26.925-12.079-26.925-26.925v-428.081c0-14.885 12.109-26.994 26.993-26.994h249.551c1.623 0 3.215.19 4.764.529v68.282c0 14.256 11.599 25.854 25.854 25.854h68.282c.339 1.549.529 3.14.529 4.764v43.105c0 4.142 3.357 7.5 7.5 7.5s7.5-3.358 7.5-7.5v-43.105c0-9.911-3.859-19.229-10.867-26.238l-77.323-77.323c-7.009-7.008-16.327-10.868-26.239-10.868h-249.551c-23.155 0-41.993 18.838-41.993 41.994v428.082c0 23.116 18.807 41.924 41.925 41.924h232.307c4.143 0 7.5-3.358 7.5-7.5s-3.358-7.5-7.501-7.5zm37.076-471.393 69.059 69.058h-58.204c-5.985 0-10.854-4.869-10.854-10.854v-58.204z"/><path d="m377.272 283.785c-53.775 0-97.524 43.75-97.524 97.525s43.749 97.525 97.524 97.525c22.474 0 44.408-7.83 61.764-22.047 17.111-14.018 29.055-33.589 33.629-55.108.861-4.052-1.725-8.034-5.776-8.896-4.042-.86-8.034 1.724-8.896 5.776-8.04 37.822-41.988 65.274-80.721 65.274-45.504 0-82.524-37.021-82.524-82.525s37.021-82.525 82.524-82.525c39.747 0 73.866 28.312 81.129 67.318.758 4.073 4.678 6.751 8.746 6.001 4.072-.758 6.759-4.674 6-8.746-8.584-46.107-48.905-79.572-95.875-79.572z"/><path d="m501.249 319.432c11.361-7.971 14.119-23.699 6.148-35.06-7.972-11.363-23.699-14.119-35.061-6.149l-8.062 5.656c-16.282-14.554-36.217-25.098-58.244-30.064v-15.655c13.697-1.049 24.522-12.521 24.522-26.482 0-14.65-11.918-26.568-26.567-26.568h-53.425c-14.649 0-26.568 11.918-26.568 26.568 0 13.961 10.826 25.433 24.522 26.482v15.655c-22.027 4.966-41.962 15.51-58.244 30.064l-8.062-5.656c-11.361-7.968-27.09-5.211-35.061 6.15s-5.213 27.089 6.148 35.06l6.534 4.584c-8.479 17.31-13.248 36.754-13.248 57.294 0 72.063 58.628 130.69 130.69 130.69s130.69-58.627 130.69-130.69c0-20.539-4.769-39.984-13.248-57.294zm-162.258-107.755c0-6.379 5.189-11.568 11.568-11.568h53.427c6.378 0 11.567 5.189 11.567 11.568s-5.189 11.568-11.567 11.568h-53.426c-6.379.001-11.569-5.189-11.569-11.568zm52.04 26.569v13.097c-4.523-.475-9.112-.724-13.759-.724s-9.236.248-13.759.724v-13.097zm-131.604 54.74c3.22-4.589 9.574-5.707 14.166-2.484l5.932 4.162c-4.501 5.072-8.621 10.49-12.299 16.217l-5.314-3.728c-4.592-3.221-5.706-9.576-2.485-14.167zm117.845 204.014c-63.792 0-115.69-51.898-115.69-115.69s51.898-115.69 115.69-115.69 115.69 51.898 115.69 115.69-51.898 115.69-115.69 115.69zm115.362-189.847-5.314 3.728c-3.679-5.728-7.798-11.145-12.299-16.217l5.932-4.162c4.59-3.22 10.944-2.106 14.166 2.484 3.22 4.591 2.106 10.946-2.485 14.167z"/></g></g></svg>